<?xml version="1.0" standalone="no"?>
<!DOCTYPE svg PUBLIC "-//W3C//DTD SVG 1.1//EN" "http://www.w3.org/Graphics/SVG/1.1/DTD/svg11.dtd" >
<svg xmlns="http://www.w3.org/2000/svg" xmlns:xlink="http://www.w3.org/1999/xlink" version="1.1">
<metadata>
Created by FontForge 20170910 at Wed Aug 23 20:29:29 2017
 By Jimmy Wärting
Copyright (c) SpideRaYsfoNtS. All rights reserved.
</metadata>
<defs>
<font id="NOWYOUSEEME" horiz-adv-x="833" >
  <font-face 
    font-family="NOW YOU SEE ME"
    font-weight="400"
    font-stretch="normal"
    units-per-em="1000"
    panose-1="2 0 0 0 0 0 0 0 0 0"
    ascent="800"
    descent="-200"
    x-height="799"
    cap-height="1000"
    bbox="1 -11 1500 1010.03"
    underline-thickness="50"
    underline-position="-100"
    unicode-range="U+0020-00AE"
  />
<missing-glyph horiz-adv-x="1099" 
d="M280 132l392 285l-11 36l-309 -223l57 182l-29 23zM562 319l258 -187l-152 460h-37l115 -362l-153 112zM118 642l389 -283l30 22l-303 223l187 2l12 36h-315zM715 492l12 -36l254 186h-480l-11 -36l377 -2zM401 498l30 -21l120 361l59 -182h38l-97 298zM50 498
q0 104 39 195.5t107 159.5t159.5 107t195.5 39q103 0 194 -39.5t158.5 -107.5t106.5 -159.5t39 -195.5t-40 -195t-108.5 -158t-160 -105.5t-195.5 -38.5q-103 0 -193 39.5t-157 107t-106 158.5t-39 193z" />
    <glyph glyph-name=".notdef" horiz-adv-x="1099" 
d="M280 132l392 285l-11 36l-309 -223l57 182l-29 23zM562 319l258 -187l-152 460h-37l115 -362l-153 112zM118 642l389 -283l30 22l-303 223l187 2l12 36h-315zM715 492l12 -36l254 186h-480l-11 -36l377 -2zM401 498l30 -21l120 361l59 -182h38l-97 298zM50 498
q0 104 39 195.5t107 159.5t159.5 107t195.5 39q103 0 194 -39.5t158.5 -107.5t106.5 -159.5t39 -195.5t-40 -195t-108.5 -158t-160 -105.5t-195.5 -38.5q-103 0 -193 39.5t-157 107t-106 158.5t-39 193z" />
    <glyph glyph-name=".null" horiz-adv-x="0" 
 />
    <glyph glyph-name="nonmarkingreturn" horiz-adv-x="502" 
 />
    <glyph glyph-name="space" unicode=" " horiz-adv-x="500" 
 />
    <glyph glyph-name="space" unicode="&#xa0;" horiz-adv-x="500" 
 />
    <glyph glyph-name="copyright" unicode="&#xa9;" horiz-adv-x="1550" 
d="M1349 244q-1 0 -3 -1.5t-2 -3.5l-4 -6q-11 -17 -22 -28t-35 -11h-9q-7 0 -13.5 0.5t-11.5 4.5q3 0 9.5 0.5t13.5 1.5t13.5 2t8.5 2q22 5 29.5 20.5t15.5 34.5l-2 2l-2 2q-2 1 -7 3t-11 5t-11 5t-6 3q-3 1 -12.5 5t-13.5 10q1 0 3.5 0.5t4.5 0.5q1 0 1.5 -0.5t2.5 -0.5h3
q8 0 15.5 -5t16.5 -5h4q-2 0 -3 2t-2 3q-2 1 -8 5.5t-12.5 9.5t-13 9t-7.5 5l-6.5 6.5t-12.5 12t-14.5 13t-11.5 9.5q-2 2 -7 6t-5 10h7q2 -2 7 -6.5t10.5 -9.5t10.5 -9.5t7 -5.5q1 -1 8 -6t16 -11.5l18 -13t14 -9.5q2 -2 8 -6t7 -4q2 0 7.5 4t6.5 6l1 30q0 24 -5 44t-16 41
q0 1 -2.5 5.5t-5 9.5t-4.5 9.5t-3 5.5v6q9 0 13.5 -10t7.5 -15q1 -3 4 -10t6.5 -14.5t6 -13.5t3.5 -8q8 -20 8.5 -38.5t1.5 -41.5l4 -5q1 4 4.5 13t6.5 19.5t6 19.5t4 13l4 30l5 5v-10q0 -28 -9 -51t-9 -48q12 0 26 3t26 10t21 17t11 24l1 -10q0 -15 -7.5 -24t-18 -14.5
t-23.5 -9t-23 -7.5l-4 -5q17 -10 36.5 -20t33.5 -25q14 -16 27 -29t13 -34v-7q-4 11 -12.5 23t-19 23.5t-22.5 21.5t-22 16h-4q0 -5 -1.5 -13t-5 -15t-8.5 -12t-13 -5t-18 7t-15 14v-5q0 -8 7 -29t15.5 -43.5t15 -40.5t6.5 -19q-2 0 -3 1q-1 0 -1 1q-13 9 -22.5 25.5t-16 37
t-9.5 41.5t-3 38v9t1 8zM309 295q-7 8 -12 18t-6 22q4 1 8 3q8 4 8 7v110l-30 35v4l65 6q4 0 15.5 0.5t24 1t24 0.5h16.5q3 -3 3 -8q0 -8 -4.5 -20t-10 -23t-10 -18.5t-4.5 -6.5q-2 6 -7 15.5t-13 13.5q0 1 -3.5 -1t-5.5 -2v-107q3 -1 14.5 -3t15.5 -2q4 -1 7.5 -3t7.5 -7
q-11 -17 -19 -23.5t-28 -11.5v-193q-17 0 -23 12q-4 6 -9.5 17t-11 21.5t-9 18t-3.5 8.5v116zM999 120q3 3 10 9.5t15 14.5t15 15.5t9 10.5q3 3 7 8t8.5 11t7.5 12t3 11t-3 7.5t-3 8.5t6.5 11t14.5 11t14.5 13.5t6.5 16.5q0 5 -5.5 13t-10.5 12q-3 3 -9.5 8t-14 10.5
t-13.5 10t-9 6.5q-1 0 -4 2t-5 3q-2 0 -8 2t-8 3l-12.5 12.5t-11.5 13.5q-1 0 -1.5 3t-0.5 4q0 2 0.5 4.5t1.5 2.5q2 2 7.5 4t9.5 2l3 -1l80 80q8 9 21.5 9t23.5 6q0 1 4.5 5.5t5.5 4.5q2 1 8 2t8 1q0 -4 -2.5 -16.5t-6.5 -26t-8 -24.5t-7 -11q-6 0 -11.5 10.5t-10.5 14.5
l-56 -60q8 -9 18.5 -16.5t21 -14.5t20.5 -15t16 -19q0 -2 2 -7.5t3 -7.5q1 -3 5 -12.5t6 -12.5l-86 -125q-2 -2 -9 -10t-11 -10l-10 -6q-13 -11 -20.5 -18.5t-24.5 -7.5v12zM642 445q-4 10 -4.5 16t-0.5 14v11q5 -5 9 -5.5t10 -0.5q4 0 6 2.5t4 5.5t4.5 5.5t7.5 2.5l10 -10
l45 -146q2 -10 10 -15q2 1 5.5 4.5t4.5 5.5v5q-6 26 -8 47t-2 48v51q6 -6 16 -6h5q7 0 11.5 3t8.5 7t8.5 7t12.5 3q0 -11 -1.5 -21.5t-8.5 -18.5v-332q-8 0 -12 2.5t-6 6.5t-3.5 10t-5.5 13q-6 11 -16.5 26t-18.5 23q-2 5 -6.5 18t-9 27.5t-9 27.5t-6.5 18q-2 8 -6 18.5
t-11 16.5v-212q-8 0 -12 6q-7 11 -12.5 24.5t-13.5 25.5q-1 1 -1.5 2.5t-1.5 3.5l-2 4v256zM886 431q-11 6 -13 9.5t-10 14.5q-2 2 -6.5 7.5l-9 11t-9 10t-5.5 6.5v6h146v-16q0 -2 -10 -11t-15 -14q-2 -1 -9 -3t-10 -2v-328q-9 0 -13.5 5t-6.5 11.5t-3 14t-4 12.5
q-2 4 -10.5 15t-11.5 15v236zM572 498q1 0 8.5 -12.5t11.5 -19.5q2 -3 3 -6t3 -6l-6 -4v-200l-11 -11t-16.5 -17t-16.5 -16.5t-11 -10.5q-1 -1 -5 -4l-8 -6t-7.5 -6t-3.5 -4l-10.5 -10.5l-10.5 -10.5h-4q-6 0 -10.5 4.5t-7.5 10.5t-5 12t-3 8l-4 6q-2 2 -4 5.5t-2 4.5v255
q0 10 4 14.5t9.5 7.5t11.5 6t9 10h86zM507 218q7 0 14 6.5t12.5 16t9 19t4.5 15.5q0 9 1 31t2 46.5t1.5 47t0.5 31.5v10q0 14 -9 17t-20 3l-16 -1v-242zM1259 300q0 -3 -2 -3q-3 0 -3 3q0 2 2 2q3 0 3 -2zM1219 385q4 0 4 -5q0 -4 -4 -4q-3 0 -3 4q0 5 3 5zM1204 475h30
q0 -2 -2 -4.5t-3 -4.5q0 -3 -1 -11t-2 -17t-1.5 -16.5t-0.5 -10.5q-3 2 -6 6t-3 8q-1 2 -2 8.5t-1.5 14t-1.5 14t-1 8.5zM1242 477q11 0 14.5 -3.5t7.5 -13.5q2 7 7 13t13 6v-68h-5q-2 8 -8 16.5t-14 13.5v-30q-5 1 -8.5 5.5t-3.5 8.5q-1 3 -1.5 10t-1 15.5t-0.5 16v10.5z
M853 496q4 0 4 -5t-4 -5t-4 5t4 5zM665 702q-6 5 -9 13.5t-3 16.5q1 0 4.5 1.5t5.5 2.5v100l-30 36h115l6 -7l-1 -3q-6 -8 -15 -16.5t-20 -9.5v-100q5 0 18 -2t17 -2q1 -2 2.5 -3.5t1.5 -2.5q-9 -14 -15 -21t-24 -9v-123h37v-3q0 -3 -2 -5q-6 -11 -10.5 -10t-14.5 -4
q-2 -1 -7.5 -5.5t-7.5 -4.5h-15q-2 -1 -10.5 -7.5t-9.5 -8.5h-5q-2 2 -5 5.5t-3 4.5v167zM55 541q3 4 10.5 14.5t15.5 22.5l15 22.5t10 15.5q3 4 4 7t1.5 6t1.5 7t3 10t6 11.5t8.5 10.5t8 10.5t3.5 12.5q0 5 -6.5 12t-14.5 13.5t-17 12t-13 7.5l-15 5q-4 2 -13.5 12
t-11.5 13q-1 1 -1 2v3q0 6 6.5 13.5t11.5 7.5q2 0 3 -1l55 61l15 6t10 14h55q-1 -3 -3 -11t-4 -17t-4 -17t-3 -11q-2 -2 -3 -5t-2 -5h-6q-2 2 -5.5 7.5t-4.5 7.5q-1 0 -1 1t-0.5 1t-0.5 1l-2 2q-3 -2 -8.5 -7.5t-12 -11.5t-12.5 -12l-8 -8q-1 -2 -3 -5.5t-2 -5.5v-5
q12 -10 25 -18.5t23 -18t16.5 -21.5t6.5 -29v-9q-4 -5 -13 -18.5t-19.5 -28.5t-20 -28.5t-13.5 -18.5q-2 -2 -11 -12t-14 -14l-10 -4q-10 -8 -16 -14.5t-20 -6.5v11zM1300 541q3 4 10 14.5t14.5 22.5t14.5 22.5t10 15.5q6 9 6 13t4 17q2 6 6.5 11.5t9 10.5t7.5 10.5t3 12.5
q0 5 -6 12t-14 13.5t-16.5 12t-13.5 7.5q-2 1 -8 2.5t-7 2.5q-2 1 -5.5 4.5t-8 7.5t-8 7.5t-4.5 5.5v5q0 6 6 13.5t11 7.5q2 0 3 -1l55 61l15 6t10 14h56q-1 -3 -3.5 -11t-4.5 -17t-4 -17t-3 -11q0 -2 -2 -5t-3 -5h-6q0 2 -4.5 7.5t-5.5 7.5q0 1 -1.5 3t-2.5 2
q-3 -2 -8.5 -7.5t-12 -11.5t-12.5 -12l-8 -8l-4 -11v-5q12 -10 24.5 -18.5t22.5 -18t16.5 -21.5t6.5 -29v-9q-3 -5 -12.5 -18.5t-20 -28.5t-20 -28.5t-13.5 -18.5q-2 -2 -11.5 -12t-13.5 -14l-9 -4q-11 -8 -16.5 -14.5t-18.5 -6.5v11zM788 842q-6 0 -10 3q-3 1 -6 3v2
q0 1 1 2l2 2l2 2h26q2 1 12.5 3t12.5 3q2 0 8.5 1t14 2t14 1.5t8.5 0.5l7 5q7 0 13 -4.5t10.5 -11.5t7 -14t2.5 -13l-30 -88v-9l61 -177h-11q-2 5 -9.5 16.5t-10.5 14.5q-1 1 -9.5 7t-10.5 8l-5.5 5.5t-4.5 3.5q-14 29 -23 59.5t-29 56.5v-191h-8q-4 23 -14.5 40t-15.5 35
v31q0 11 -0.5 39.5t-1.5 61t-2 61t-1 39.5zM495 842q-2 2 -6.5 7t-6.5 7q-1 0 -1 1v2q0 5 3 6.5t6.5 1.5t7 0.5t4.5 4.5h90l20 -30v-206l-3.5 -6t-8 -14t-10 -16t-8.5 -14q-2 -4 -5.5 -9.5t-4.5 -5.5q-2 -2 -12.5 -3.5t-12.5 -2.5q-2 0 -10 -9t-10 -10h-4q-3 10 -4 23.5
t-3 26.5t-6.5 24t-14.5 16v206zM964 732l9 9q1 1 3 11t4 23.5t4.5 27.5t3.5 23v9q0 10 -2 17.5t-7 19.5h99q2 0 3.5 -2t2.5 -3q0 -2 2.5 -9.5t2.5 -11.5q1 -3 3 -16.5t4.5 -28.5t5 -28t2.5 -16q1 -9 4 -12l5 -5l4 -4t2 -9q0 -11 -2.5 -18t-2.5 -18l16 -142q-12 0 -13 4
t-8 12q-2 2 -10 10.5t-10 10.5l-5 15l-16 74q0 5 -2 13l-2 8h-45q-6 0 -9.5 -21.5t-7 -48t-7.5 -49.5t-12 -26q-2 1 -4.5 11.5t-5 24t-5 26t-4.5 18.5v101zM243 836q-1 0 -5.5 2t-5.5 4q-2 2 -4 9.5t-2 10.5q4 -2 9 -2t8.5 2t3.5 7h105l24 -27v-85l-24 -25h-16l-5 -3.5
t-11 -8t-12.5 -10t-10.5 -8.5l-10 -11l-6 -55q0 -6 -3 -17.5t-8 -23t-12 -19.5t-15 -8v268zM1204 616q-3 65 -18 122.5t-37 120.5h20q2 3 5 8t7 5q10 0 13.5 -15t6 -33t6 -33t12.5 -15q8 0 10 5v40q1 3 3 12.5t2 12.5q2 6 10 7t10 3q2 1 8 7.5t8 8.5q1 1 7.5 2t8.5 1
q0 -17 -12 -33q-2 -9 -7.5 -31t-11 -47t-10.5 -47t-6 -31q0 -3 -1 -21t-1.5 -39t-2 -38t-2.5 -18h-2q-1 0 -1 1q-1 0 -3 1.5t-2 3.5q-3 5 -10.5 20t-9.5 20zM412 787q0 3 -0.5 10t-1.5 14.5t-2 14.5t-1 10l-4 16q-1 1 -1 3q-1 1 -1 4q0 1 1 3.5t1 4.5q0 -3 5 -5q3 -1 6 -1h2
q1 0 1 1l3 3t2 4h30v-295q-6 0 -9.5 3.5t-5.5 9t-3 11t-3 8.5q0 3 -6 10.5t-8 9.5zM537 610q7 0 13 6t11 14t9 16.5t8 14.5v136q-5 10 -7.5 22.5t-2.5 22.5h-31v-232zM1019 741q3 -2 14.5 -5.5t14.5 -3.5t7 2t4 4q0 10 -4.5 24.5t-6.5 24.5q0 3 -1.5 12.5t-3 20t-3 19.5
t-1.5 13l-5 -6q-1 0 -3 -11.5t-4 -27.5t-4.5 -33t-3.5 -28v-5zM287 743q5 0 13 3t16 8t14 10.5t6 11.5v60h-49v-93zM828 764q0 -7 2.5 -10t10.5 -3q4 0 11 9t14 21t12 23.5t5 16.5l-5 5q0 2 -1 8t-1 8h-43l-5 -66v-12zM663 872q3 0 3 -5t-3 -5q-4 0 -4 5t4 5zM999 872
q4 0 4 -5t-4 -5q-5 0 -5 5t5 5zM482 876q3 0 3 -5q0 -4 -3 -4q-4 0 -4 4q0 5 4 5z" />
    <glyph glyph-name="registered" unicode="&#xae;" horiz-adv-x="1099" 
d="M326 276v-276h-276v276h276zM406 34v-34h-36v34h36zM487 38v40h40v79h-40v-76h-37v34h-42v-34h-38v36h38v42h39v80h-79v80h-160v39h-41v42h-117v37h115v42h-37v41h-39v42h119v77h39v-40h79v-37h-37v-42h-40v-39h40v39h79v121h40v80h39v37h-39v-34h-38v78h38v39h42v42h36
v35h-36v-33h-80v37h80v40h37v37h81v-37h-39v-79h-42v-42h-35v-37h35v37h42v42h41v39h79v77h80v-77h-80v-39h-37v-42h-81v-37h81v34h35v-117h-35v-37h-39v37h35v37h-38v-37h-41v-40h-39v-40h39v-76h41v34h79v80h80v-38h-38v-79h-39v-39h39v39h39v79h80v38h39v-80h-78v-79h-37
v-39h37v37h78v-81h-36v-77h39v40h39v37h80v42h41v39h37v-116h-37v34h-41v-36h-78v-120h40v39h38v37h38v-37h-38v-41h-38v-39h-40v-42h40v-38h35v-42h-77v-79h-81v-38h-36v38h36v40h39v79h-78v-79h-41v-78h-157v38h35v37h-38v-37h-83v-38h-35v38h35zM930 34v-34h-37v34h37z
M1049 34v-34h-34v34h34zM89 40h198v198h-198v-198zM649 40h42v38h38v39h-38v42h-39v80h39v161h78v36h-78v-34h-42v75h-37v-77h-42v-42h-83v-39h-35v-41h75v-39h-37v-39h80v38h38v-79h-35v-42h76v-77zM245 196v-115h-114v115h114zM1049 115v-34h-76v34h76zM734 200h115v116
h-115v-116zM1012 239v77h37v-116h-76v39h39zM807 276v-34h-33v34h33zM647 356v-37h-35v-39h-39v76h74zM125 356v-36h-75v36h75zM249 360h238v40h40v79h-40v39h-119v-39h-77v-42h35v-37h-77v-40zM211 402h34v34h-34v-34zM447 436v-34h-37v34h37zM573 481h35v78h-35v-78z
M854 562v37h37v42h42v38h35v-38h-33v-39h36v39h41v38h37v-114h-37v32h-41v-35h-38v-39h-42v39h-37zM410 565h76v34h-36v40h-40v-74zM88 679v-35h40v35h37v-77h-115v77h38zM366 679v-35h-75v35h75zM326 999v-275h-276v275h276zM490 724h37v34h-37v-34zM729 758v-34h-36v34h36
zM1049 999v-275h-275v275h275zM89 763h198v197h-198v-197zM813 763h196v197h-196v-197zM245 918v-114h-114v114h114zM729 880v-76h-36v76h36zM968 918v-114h-114v114h114zM447 999v-34h-77v34h77z" />
    <glyph glyph-name="percent" horiz-adv-x="700" 
d="M538 1000l-318 -1000h-92l318 1000h92zM146 818l-96 70h119l38 113v0l36 -113h119l-96 -70l37 -114l-96 70l-100 -70zM434 118l-96 70h119l38 113v0l36 -113h119l-96 -70l37 -114l-96 70l-100 -70z" />
    <glyph glyph-name="E" unicode="E" horiz-adv-x="700" 
d="M50 440h531v-92h-439v-256h508v-92h-600v440zM650 1000v-92h-508v-363h-92v455h600z" />
    <glyph glyph-name="F" unicode="F" horiz-adv-x="701" 
d="M581 440v-92h-439v-348h-92v440h531zM651 1000v-92h-509v-363h-92v455h601z" />
    <glyph glyph-name="O" unicode="O" horiz-adv-x="1073" 
d="M1023 501q0 -101 -37 -193.5t-102 -163t-154 -112.5t-193 -42q-62 0 -120.5 16t-110.5 45t-96 70.5t-77 93.5l80 45q59 -79 141.5 -127t182.5 -48q84 0 156 34t125.5 91.5t83.5 133t30 157.5t-30.5 157t-84 132t-125.5 91t-155 34t-155.5 -34t-126 -91t-84 -132
t-30.5 -157q-2 -44 7.5 -81.5t19.5 -75.5l-12.5 -7t-28 -15.5t-28 -15t-11.5 -6.5q-20 48 -29 98.5t-9 102.5q0 101 37.5 193.5t103 162.5t154.5 111.5t192 41.5t191.5 -41.5t154 -111.5t103 -162.5t37.5 -193.5z" />
    <glyph glyph-name="M" unicode="M" horiz-adv-x="947" 
d="M142 600v-600h-92v707zM897 883v-146l-375 -446l-60 73zM52 1000l412 -492l-61 -74l-351 420v146z" />
    <glyph glyph-name="Y" unicode="Y" horiz-adv-x="931" 
d="M774 999h107l-372 -690l-2 -309h-91v309zM155 999l259 -475l-50 -108l-314 583h105z" />
    <glyph glyph-name="U" unicode="U" horiz-adv-x="805" 
d="M445 81q43 7 82.5 29t69.5 54.5t48 74t18 86.5v675h92v-696q0 -59 -27.5 -113.5t-71.5 -97t-99.5 -70.5t-111.5 -34v92zM142 1000v-684q0 -17 6.5 -39.5t13.5 -37.5q27 -63 78.5 -103.5t119.5 -54.5v-91q-60 0 -116 30.5t-99 79t-69 108t-26 117.5v675h92z" />
    <glyph glyph-name="L" unicode="L" horiz-adv-x="700" 
d="M50 440h92v-348h508v-92h-600v440zM142 1000v-455h-92v455h92z" />
    <glyph glyph-name="Q" unicode="Q" horiz-adv-x="1077" 
d="M1023 501q0 -101 -37 -193.5t-102 -163t-154 -112.5t-193 -42q-62 0 -120.5 16t-110.5 45t-96 70.5t-77 93.5l80 45q59 -79 141.5 -127t182.5 -48q84 0 156 34t125.5 91.5t83.5 133t30 157.5t-30.5 157t-84 132t-125.5 91t-155 34t-155.5 -34t-126 -91t-84 -132
t-30.5 -157q-2 -44 7.5 -81.5t19.5 -75.5l-12.5 -7t-28 -15.5t-28 -15t-11.5 -6.5q-20 48 -29 98.5t-9 102.5q0 101 37.5 193.5t103 162.5t154.5 111.5t192 41.5t191.5 -41.5t154 -111.5t103 -162.5t37.5 -193.5zM704 374l323 -384h-108l-215 256v128z" />
    <glyph glyph-name="W" unicode="W" horiz-adv-x="1378" 
d="M408 110l243 587l-118 303h95l295 -759l310 759h95l-405 -1010l-223 580l-245 -580zM145 1000l262 -640l-47 -118l-310 758h95z" />
    <glyph glyph-name="V" unicode="V" horiz-adv-x="889" 
d="M405 119l339 881h95l-387 -1000zM144 1000l260 -633l-46 -116l-308 749h94z" />
    <glyph glyph-name="B" unicode="B" horiz-adv-x="787" 
d="M50 811h92v-217h271q29 3 54.5 16.5t44.5 35t30 49t10 56.5q0 30 -11 57.5t-30.5 48.5t-46 34.5t-56.5 16.5h-358v92h391q45 -3 85 -23.5t70 -53.5t46.5 -74.5t15.5 -86.5q0 -64 -31 -117t-83 -88q42 -16 77.5 -43.5t61 -63t39.5 -77.5t14 -87q0 -56 -22 -108
t-59.5 -91.5t-88 -63t-107.5 -23.5h-409v811zM142 92h308q37 4 70 22.5t57 46.5t37.5 63t13.5 73q0 37 -13 71t-36 61t-55 45.5t-69 24.5h-313v-407z" />
    <glyph glyph-name="A" unicode="A" horiz-adv-x="894" 
d="M343 759l48 -123l-143 -367h391l-247 619l48 122l404 -1010h-92l-75 177h-464l-71 -177h-92z" />
    <glyph glyph-name="C" unicode="C" horiz-adv-x="978" 
d="M143 440q13 -72 45 -135.5t81.5 -111.5t115.5 -77t147 -32q99 0 182 46t143 123l71 -55q-71 -96 -173.5 -152t-223.5 -56q-93 -1 -176.5 35.5t-148.5 98.5t-106.5 144t-49.5 172h93zM535 1010q59 0 114.5 -14.5t106 -41.5t93.5 -65t76 -86l-2.5 -2.5t-8 -7l-19.5 -16.5
t-37 -31q-52 75 -123 116t-147.5 50t-152 -11.5t-137.5 -68t-104 -120.5t-51 -167h-93q6 94 47 178.5t106.5 148.5t150.5 101.5t181 36.5z" />
    <glyph glyph-name="D" unicode="D" horiz-adv-x="877" 
d="M50 92q55 0 111.5 -1t112.5 1.5t110.5 11t104.5 28t94 52.5t80 85q38 55 57 110t19 122q0 79 -31 152.5t-84 130t-125 90.5t-154 34h-202v-711h-93v803h275q103 0 194 -39.5t159.5 -108t108.5 -159t40 -192.5q0 -96 -37.5 -186.5t-102.5 -160.5t-152.5 -112t-186.5 -42
h-298v92z" />
    <glyph glyph-name="H" unicode="H" horiz-adv-x="700" 
d="M50 440h600v-440h-92v348h-416v-348h-92v440zM143 1000l-1 -455h-92v455h93zM650 1000v-455h-92v455h92z" />
    <glyph glyph-name="J" unicode="J" horiz-adv-x="799" 
d="M439 81q43 7 82.5 29t69.5 54.5t48 74t18 86.5v675h92v-696q0 -59 -27.5 -113.5t-71.5 -97t-99.5 -70.5t-111.5 -34v92zM142 300q4 -42 22.5 -78.5t47 -65.5t65 -48.5t77.5 -26.5v-91q-52 1 -104.5 25t-95.5 65t-71.5 97.5t-32.5 122.5h92z" />
    <glyph glyph-name="K" unicode="K" horiz-adv-x="688" 
d="M141 1000v-1000h-91v1000h91zM522 1000h112l-302 -454l306 -546h-116l-305 554z" />
    <glyph glyph-name="P" unicode="P" horiz-adv-x="756" 
d="M387 374q55 5 96.5 28.5t69.5 60t42.5 82.5t16.5 96q1 50 -17 97t-49.5 84t-71.5 60t-82 26h-250v-452h-92v544h326q69 -4 129.5 -35t105 -80.5t70 -113t24.5 -131.5q1 -69 -25.5 -131.5t-72 -111.5t-106 -80t-128.5 -36h-231v-281h-92v374h337z" />
    <glyph glyph-name="R" unicode="R" horiz-adv-x="756" 
d="M388 374q50 6 91.5 30t71.5 61t46 82.5t15 94.5q8 46 -12 91.5t-54 82.5t-75.5 62t-77.5 31h-252v-453h-91v544h326q69 -5 129 -36t105 -80.5t70.5 -112.5t24.5 -131q1 -55 -16.5 -107t-49 -96.5t-75 -78t-94.5 -52.5q-1 0 2.5 -5.5t20.5 -34.5t54 -91t104 -175h-104
l-166 279h-240v-279h-91v374h338z" />
    <glyph glyph-name="T" unicode="T" horiz-adv-x="701" 
d="M395 440v-440h-92v440h92zM50 908v92h601v-92h-255l-1 -363h-92v363h-253z" />
    <glyph glyph-name="I" unicode="I" horiz-adv-x="192" 
d="M142 1000v-455h-92v455h92zM142 440v-440h-92v440h92z" />
    <glyph glyph-name="period" unicode="." horiz-adv-x="412" 
d="M146 118l-96 70h119l38 113v0l36 -113h119l-96 -70l37 -114l-96 70l-100 -70z" />
    <glyph glyph-name="G" unicode="G" horiz-adv-x="975" 
d="M143 440q7 -74 41.5 -139.5t88 -113.5t121.5 -75.5t142 -26.5q80 -1 157.5 35t138.5 105v123h-281v92h374v-241q-35 -49 -78.5 -88t-93.5 -66t-105.5 -41t-114.5 -14q-93 1 -176.5 37t-149 97.5t-107 143t-50.5 172.5h93zM534 1010q58 0 114.5 -15t106.5 -42.5t93.5 -66
t76.5 -86.5l-72 -55q-55 79 -139 124.5t-178 45.5q-77 1 -146.5 -28t-123 -79.5t-86.5 -118.5t-37 -144h-93q7 94 47.5 178.5t105.5 148.5t150 101t181 37z" />
    <glyph glyph-name="N" unicode="N" horiz-adv-x="812" 
d="M50 1010h20l692 -890v-130l-712 882v138zM150 596v-596h-100v719z" />
    <glyph glyph-name="S" unicode="S" horiz-adv-x="586" 
d="M52 192q8 5 21 13l26 16t23 13.5t11 5.5q44 -74 103.5 -116.5t147.5 -42.5q42 0 78 13t74 29v-108q-37 -13 -74 -18.5t-75 -5.5q-109 -2 -197.5 50.5t-139.5 149.5zM115 762q0 60 19.5 106t54 77.5t82.5 48t106 16.5q42 0 81.5 -7t77.5 -29v-124q-20 18 -37.5 31t-36 22
t-40 13.5t-49.5 4.5q-19 0 -40.5 -4t-41.5 -13t-36.5 -23t-25.5 -33q-8 -17 -9.5 -38.5t-1.5 -39.5q0 -35 10.5 -59t29 -42.5t43 -32.5t52.5 -29q4 -2 19.5 -9t36 -16.5t43 -20t41 -19.5t31 -15.5t12.5 -7.5v-125q-32 24 -69 41l-74 34q-48 22 -97.5 48.5t-89.5 60.5
t-65.5 79t-25.5 105z" />
    <glyph glyph-name="asterisk" unicode="*" horiz-adv-x="1150" 
d="M368 369l36 -28l-70 -222l377 272l13 -44l-477 -347zM628 256l186 -137l-139 441h44l185 -560l-314 227zM433 621l-14 -44l-229 -2l369 -272l-36 -27l-473 345h383zM962 575l-459 2l13 44h584l-309 -227l-14 45zM577 1000l118 -362h-47l-71 221l-146 -440l-37 27z" />
    <glyph glyph-name="ampersand" unicode="&#x26;" horiz-adv-x="1050" 
d="M441 3q1 0 1 -0.5t-1 -0.5t-1 0.5t1 0.5zM604 3q1 0 1 -0.5t-1 -0.5t-1 0.5t1 0.5zM735 137q2 6 7 9l44 66q1 1 4 6.5t2 9.5l-33 192l-93 43q-2 2 -8 5t-10 7h8l98 -20h5q5 10 8.5 11t6 -1t3.5 -6l1 -4l17 -50l23 -157q2 1 8 3.5t8 4.5h2q1 -8 -2.5 -18.5t-5.5 -13.5
q-2 -7 -7 -18.5t-7 -13.5l-43 -58l-92 -84l-72 -49zM411 20l-2 1l-87 70q-3 2 -10.5 9.5l-16 16t-16 17t-10.5 12.5t-9 12.5t-13 18.5t-12.5 19t-6.5 13q-4 10 -9.5 22.5t-4.5 24.5h2q2 -2 8 -4.5t8 -3.5l24 157q2 12 9 32.5t16 29.5q1 1 2.5 0t2.5 -2t3.5 -5t2.5 -5h4
l98 20h8q-4 -4 -10 -7t-8 -5l-92 -43l-34 -195l66 -98l116 -122h-2q-1 0 -11 6t-16 9zM607 8q1 0 1 -1t-1 -1q-2 0 -2 1t2 1zM679 47q1 0 1 -1t-1 -1t-1 1t1 1zM190 77q-2 1 -6 6.5t-9 11.5t-9 11t-5 7l-2 2l-94 226l-15 59v31q4 0 10.5 -7.5t8.5 -3.5l71 93l48 46h2
q2 -6 3 -14t8 -10l166 -41l-5 -3h-40l-137 14l-87 -105q-1 -2 -1 -11t1 -14q0 -2 2 -14.5t3 -19.5q1 -2 2.5 -4t-0.5 -4l106 -273v-6l-10.5 10.5t-10.5 12.5zM942 324q0 1 1.5 7t3 14t3 16.5t2.5 13.5l2.5 12.5t-0.5 9.5l-88 108l-140 -14h-38l-5 3l166 41q7 2 8 10t3 14h2
l100 -109v-2l19 -28q1 -2 3.5 -0.5t5.5 3.5t5.5 4.5t4.5 3.5v-31l-84 -235q-10 -29 -31 -59.5t-46 -51.5v2zM845 59q1 0 1 -2t-1 -2t-1 2t1 2zM460 86q-20 6 -41.5 23t-38.5 39t-28 47t-11 48v68q0 1 1.5 6t3 11.5t3.5 13t3 10.5q15 43 47.5 73t74.5 47l2 2q-7 7 -16.5 19
t-9.5 23v46q0 3 2.5 7.5t5.5 9.5t5.5 9t1.5 5q-17 23 -11 36.5t30 23.5v-2q-8 -23 -9 -31.5t3.5 -9.5t14 3t22.5 6q26 3 51 -11q8 3 8.5 9t-2 12.5l-5 13t-1.5 10.5q2 -1 10.5 -6.5t12.5 -3.5l-2 -2q14 -11 11 -23.5t-13 -24.5v-2q17 -29 16 -62t-29 -55q10 -6 21 -9.5
t22 -9.5q2 -1 10 -7t9 -7q1 0 5 -2q25 -23 42.5 -50.5t25.5 -60.5q10 -42 3.5 -83.5t-27.5 -76t-54 -59.5t-76 -32q-3 -1 -11 -1.5t-16.5 -0.5t-16 0.5t-10.5 1.5q-1 0 -16 3.5t-23 5.5zM756 116q1 0 1 -1t-1 -1t-1 1t1 1zM775 135q2 0 2 -1t-2 -1q-1 0 -1 1t1 1zM775 206
q2 0 2 -1t-2 -1q-1 0 -1 1t1 1zM178 492q1 0 1 -1t-1 -1t-1 1t1 1zM180 591q-2 0 -3 -4t-2 -7.5t-3 -3.5t-7 9q-5 10 -9 19t-7 20q-6 24 -11 52.5t-4 54.5h-17l141 269v-4l-93 -247v-29q0 -3 0.5 -10t1.5 -13.5t2 -12.5t1 -7q1 -6 3 -14.5t4 -16.5l3.5 -14l1.5 -6l3 -2
q4 -2 15.5 -7.5t24.5 -11t24 -11l15 -7.5q2 -1 6.5 -4t10 -6t9.5 -5.5t6 -3.5q1 0 5 -2l87 -63h-4l-202 88h-2zM790 588l76 36l2 2l1.5 6l3.5 14t4 16.5t3 14.5q0 1 1 7t2 12.5t1.5 13.5t0.5 10v29l-85 220q-2 2 -4.5 12t-3.5 15v4l34 -65l2 -2l47 -90q3 -2 2 -4l54 -104v-5
h-15l-10 -89q0 -3 -4.5 -16t-7.5 -18q-1 -3 -5.5 -13t-6.5 -13q0 -1 -2 -2.5t-3 -2.5q-1 0 -1 1l-1 2q-1 2 -2.5 6.5t-2.5 5.5h-2l-204 -88l3 5zM724 624q2 1 6 5.5t2 6.5l-57 103q-1 0 -2 1.5t0 2.5l-54 113l-15 51l41 -58q2 -4 6 -10l52 -70l-3 -2q-2 0 -5 -1.5t-5 -1.5
v-4l76 -131q2 0 4 -7t3 -12v-2q-4 0 -11 3t-10 -1l-118 -102l-5 -3zM298 610q-3 4 -10 1t-11 -3v2q1 5 3 12t3 7l77 133v2q-2 0 -5 1.5t-5 1.5l-3 2l96 136v-3l-19 -63l-106 -203q-1 -2 0 -4t2 -3l87 -103q1 -3 5.5 -8.5t6.5 -9.5h-3q-1 0 -3.5 2t-3.5 3zM373 519q1 0 1 -1
t-1 -1t-1 1t1 1zM683 540q1 0 1 -1t-1 -1t-1 1t1 1zM175 555q1 0 1 -1t-1 -1t-1 1t1 1zM811 565q2 0 2 -1t-2 -1q-1 0 -1 1t1 1zM460 590q2 0 2 -1t-2 -1q-1 0 -1 1t1 1zM294 659q1 0 1 -1t-1 -1t-1 1t1 1zM688 703q1 0 1 -1t-1 -1q-2 0 -2 1t2 1zM690 793q1 0 1 -1t-1 -1
t-1 1t1 1zM636 808q1 0 1 -1t-1 -1t-1 1t1 1zM379 817q2 0 2 -0.5t-2 -0.5q-1 0 -1 0.5t1 0.5zM837 924q1 0 1 -1t-1 -1v2zM425 140l146 106l-4 14l-116 -84l22 67l-11 10zM530 209l96 -69l-57 172h-14l43 -133v-2l-57 42zM364 330l146 -106l10 9l-113 83l70 1l4 13h-117z
M587 275l4 -14l95 69h-179l-5 -13l142 -1zM470 276l11 -7l44 134l23 -67h14l-37 111z" />
    <glyph glyph-name="Z" unicode="Z" horiz-adv-x="719" 
d="M97 92h569v-92h-616zM98 908v91h571l-408 -802h-111l357 711h-409z" />
    <glyph glyph-name="X" unicode="X" horiz-adv-x="776" 
d="M777 3v-3h-117l-648 1000h118l259 -400l261 400h118l-316 -490v-4zM117 0h-116l268 417l61 -93z" />
    <glyph glyph-name="hyphen" unicode="-" horiz-adv-x="701" 
d="M581 440v-92h-531v92h531z" />
    <glyph glyph-name="zero" unicode="0" 
 />
    <glyph glyph-name="one" unicode="1" 
 />
    <glyph glyph-name="two" unicode="2" 
 />
    <glyph glyph-name="three" unicode="3" 
 />
    <glyph glyph-name="four" unicode="4" 
 />
    <glyph glyph-name="five" unicode="5" 
 />
    <glyph glyph-name="six" unicode="6" 
 />
    <glyph glyph-name="seven" unicode="7" 
 />
    <glyph glyph-name="eight" unicode="8" 
 />
    <glyph glyph-name="nine" unicode="9" 
 />
    <glyph glyph-name="a" unicode="a" horiz-adv-x="715" 
d="M274 607l39 -98l-115 -294h313l-197 495l38 98l323 -808h-73l-60 142h-372l-56 -142h-74z" />
    <glyph glyph-name="b" unicode="b" horiz-adv-x="630" 
d="M40 649h74v-174h216q23 2 43.5 13t36 28.5t24 39t8.5 45.5t-9 46t-25 38.5t-37 27.5t-45 13h-286v74h313q36 -2 68 -18.5t56 -43t37 -59.5t12 -69q0 -51 -24.5 -94t-66.5 -70q34 -13 62.5 -35t49 -50.5t31.5 -62t11 -69.5q0 -45 -17.5 -86.5t-47.5 -73t-70.5 -50.5
t-86.5 -19h-327v649zM114 74h246q30 3 56 17.5t45.5 37t30 51t10.5 58.5t-10 57t-29 48.5t-44 36t-55 19.5h-250v-325z" />
    <glyph glyph-name="c" unicode="c" horiz-adv-x="782" 
d="M114 352q11 -58 36.5 -108.5t65 -89t92.5 -61.5t118 -26q78 0 145 37t115 98l56 -44q-57 -76 -138.5 -121t-178.5 -45q-74 -1 -141 28t-119 78.5t-85 115.5t-40 138h74zM428 808q95 0 176.5 -44.5t135.5 -121.5l-2 -2t-6 -5t-16 -13t-30 -25q-42 60 -98.5 92.5t-117.5 40
t-121.5 -9.5t-110.5 -54.5t-83.5 -96t-40.5 -133.5h-74q5 75 37.5 143t85 119t120.5 81t145 29z" />
    <glyph glyph-name="d" unicode="d" horiz-adv-x="702" 
d="M40 74q66 0 134.5 -1t133 9.5t122 40.5t100.5 92q30 45 45.5 88.5t15.5 97.5q0 63 -24.5 121.5t-67.5 104t-100 72.5t-123 27h-162v-568h-74v642h220q82 0 155 -32t128 -86.5t87 -127t32 -153.5q0 -77 -30 -149.5t-82.5 -128.5t-122.5 -89.5t-149 -33.5h-238v74z" />
    <glyph glyph-name="e" unicode="e" horiz-adv-x="560" 
d="M40 352h425v-74h-351v-204h406v-74h-480v352zM520 800v-74h-406v-290h-74v364h480z" />
    <glyph glyph-name="f" unicode="f" horiz-adv-x="561" 
d="M465 352v-74h-351v-278h-74v352h425zM521 800v-74h-407v-290h-74v364h481z" />
    <glyph glyph-name="g" unicode="g" horiz-adv-x="780" 
d="M114 352q6 -59 33.5 -111t70.5 -91t97 -61t114 -21q64 -1 126 27.5t111 84.5v98h-225v74h299v-193q-56 -78 -137.5 -123t-176.5 -44q-74 1 -141 30t-119 78t-85.5 114t-40.5 138h74zM427 808q47 0 92 -12t85.5 -34t75 -53t60.5 -69l-58 -44q-44 63 -111 99.5t-142 36.5
q-61 1 -117 -22.5t-99 -64t-69.5 -94.5t-29.5 -115h-74q5 76 37.5 143.5t84.5 118.5t120 80.5t145 29.5z" />
    <glyph glyph-name="h" unicode="h" horiz-adv-x="560" 
d="M40 352h480v-352h-74v278h-332v-278h-74v352zM114 800v-364h-74v364h74zM520 800v-364h-74v364h74z" />
    <glyph glyph-name="i" unicode="i" horiz-adv-x="154" 
d="M114 800v-364h-74v364h74zM114 352v-352h-74v352h74z" />
    <glyph glyph-name="j" unicode="j" horiz-adv-x="639" 
d="M351 65q34 6 66 23.5t56 43.5t38.5 59t14.5 69v540h73v-557q0 -47 -22 -90.5t-57.5 -77.5t-79.5 -56.5t-89 -27.5v74zM114 240q3 -34 17.5 -63t37.5 -52t52 -38.5t62 -21.5v-73q-41 1 -83 20t-76.5 52t-57.5 78t-26 98h74z" />
    <glyph glyph-name="k" unicode="k" horiz-adv-x="550" 
d="M113 800v-800h-73v800h73zM418 800h89l-241 -363l244 -437h-92l-244 443z" />
    <glyph glyph-name="l" unicode="l" horiz-adv-x="560" 
d="M40 352h74v-278h406v-74h-480v352zM114 800v-364h-74v364h74z" />
    <glyph glyph-name="m" unicode="m" horiz-adv-x="758" 
d="M114 480v-480h-74v566zM718 706v-116l-300 -357l-48 58zM42 800l329 -394l-49 -59l-280 336v117z" />
    <glyph glyph-name="n" unicode="n" horiz-adv-x="650" 
d="M40 808h16l554 -712v-104l-570 706v110zM120 477v-477h-80v575z" />
    <glyph glyph-name="o" unicode="o" horiz-adv-x="858" 
d="M818 401q0 -81 -29.5 -155t-81.5 -130.5t-123 -90t-154 -33.5q-100 1 -185 48.5t-139 131.5l64 36q48 -63 113.5 -101.5t146.5 -38.5q67 0 125 27.5t100.5 73.5t66.5 106t24 126q0 65 -24.5 125t-67 105.5t-100.5 73t-124 27.5q-67 0 -125 -27.5t-100.5 -73t-67 -105.5
t-24.5 -125q-2 -35 5.5 -65.5t15.5 -60.5l-10 -5.5t-22 -12.5t-22 -12l-10 -5q-16 38 -23 78.5t-7 82.5q0 81 30 154.5t82.5 130t123.5 89.5t154 33q82 0 153 -33t123 -89.5t82 -130t30 -154.5z" />
    <glyph glyph-name="p" unicode="p" horiz-adv-x="605" 
d="M310 299q43 4 76 23t55.5 48.5t34.5 66t14 76.5q1 40 -14 77.5t-39.5 67t-57 48t-65.5 20.5h-200v-361h-74v435h261q55 -3 103.5 -28t84 -64.5t56 -90t19.5 -105.5q1 -55 -20 -105t-57.5 -89t-85.5 -64t-103 -29h-184v-225h-74v299h270z" />
    <glyph glyph-name="q" unicode="q" horiz-adv-x="862" 
d="M818 401q0 -81 -29.5 -155t-81.5 -130.5t-123 -90t-154 -33.5q-100 1 -185 48.5t-139 131.5l64 36q48 -63 113.5 -101.5t146.5 -38.5q67 0 125 27.5t100.5 73.5t66.5 106t24 126q0 65 -24.5 125t-67 105.5t-100.5 73t-124 27.5q-67 0 -125 -27.5t-100.5 -73t-67 -105.5
t-24.5 -125q-2 -35 5.5 -65.5t15.5 -60.5l-10 -5.5t-22 -12.5t-22 -12l-10 -5q-16 38 -23 78.5t-7 82.5q0 81 30 154.5t82.5 130t123.5 89.5t154 33q82 0 153 -33t123 -89.5t82 -130t30 -154.5zM563 299l259 -307h-87l-172 205v102z" />
    <glyph glyph-name="r" unicode="r" horiz-adv-x="605" 
d="M310 299q40 4 73.5 24t57.5 49t36.5 66t12.5 76q6 37 -10 73t-43 65.5t-60.5 49.5t-62.5 25h-201v-362h-73v435h261q55 -4 103 -29t84 -64t56.5 -89.5t19.5 -105.5q1 -44 -13 -86t-39 -77t-60 -62t-76 -42q-1 0 1.5 -4.5t16.5 -27.5t43.5 -72.5t83.5 -140.5h-83l-133 223
h-192v-223h-73v299h270z" />
    <glyph glyph-name="s" unicode="s" horiz-adv-x="469" 
d="M42 154q6 4 16.5 10.5t21 12.5t18 10.5t8.5 4.5q35 -59 83 -93t118 -34q34 0 63 10.5t59 22.5v-86q-29 -11 -59 -15t-60 -4q-88 -2 -158.5 40t-111.5 120zM92 610q0 48 15.5 84.5t43 62t66 38.5t85.5 13q33 0 65 -6t62 -23v-99q-16 14 -30 25t-29 18t-32.5 10.5
t-39.5 3.5q-15 0 -32 -3.5t-33 -10.5t-29.5 -18.5t-20.5 -26.5q-6 -13 -7.5 -30.5t-1.5 -31.5q0 -28 8.5 -47.5t23.5 -34t34.5 -25.5t41.5 -23q6 -3 29.5 -14t49.5 -23t47 -22.5t21 -11.5v-100q-26 20 -55.5 33t-59.5 27q-38 18 -77.5 39t-71.5 48.5t-52.5 63.5t-20.5 84z
" />
    <glyph glyph-name="t" unicode="t" horiz-adv-x="561" 
d="M316 352v-352h-74v352h74zM40 726v74h481v-74h-204l-1 -290h-74v290h-202z" />
    <glyph glyph-name="u" unicode="u" horiz-adv-x="644" 
d="M356 65q34 6 65.5 23.5t55.5 43.5t38.5 59t14.5 69v540h74v-557q0 -47 -22 -90.5t-57.5 -77.5t-79.5 -56.5t-89 -27.5v74zM114 800v-547q0 -14 5 -32t11 -30q21 -51 62.5 -83t95.5 -43v-73q-48 0 -93 24.5t-79.5 63.5t-55 86.5t-20.5 93.5v540h74z" />
    <glyph glyph-name="v" unicode="v" horiz-adv-x="711" 
d="M324 95l271 705h76l-309 -800zM115 800l208 -506l-37 -93l-246 599h75z" />
    <glyph glyph-name="w" unicode="w" horiz-adv-x="1102" 
d="M326 88l195 470l-95 242h76l236 -607l248 607h76l-324 -808l-178 464l-196 -464zM116 800l210 -512l-38 -94l-248 606h76z" />
    <glyph glyph-name="x" unicode="x" horiz-adv-x="621" 
d="M622 2v-2h-94l-518 800h94l207 -320l209 320h94l-252 -392v-3zM94 0h-93l214 334l49 -75z" />
    <glyph glyph-name="y" unicode="y" horiz-adv-x="745" 
d="M619 799h86l-298 -552l-1 -247h-73v247zM124 799l207 -380l-40 -86l-251 466h84z" />
    <glyph glyph-name="z" unicode="z" horiz-adv-x="575" 
d="M78 74h455v-74h-493zM78 726v73h457l-326 -641h-89l286 568h-328z" />
  </font>
</defs>
</svg>
